<mxfile host="Electron" agent="Mozilla/5.0 (Windows NT 10.0; Win64; x64) AppleWebKit/537.36 (KHTML, like Gecko) draw.io/28.1.2 Chrome/138.0.7204.243 Electron/37.4.0 Safari/537.36" version="28.1.2">
  <diagram name="第 1 页" id="nAmgCb4hZd0nTPXkc2SH">
    <mxGraphModel dx="983" dy="580" grid="1" gridSize="10" guides="1" tooltips="1" connect="1" arrows="1" fold="1" page="1" pageScale="1" pageWidth="827" pageHeight="1169" background="#FFFFFF" math="0" shadow="0">
      <root>
        <mxCell id="0" />
        <mxCell id="1" parent="0" />
        <mxCell id="GKgfZvtBd4-jClSf1iv5-3" value="" style="rounded=1;whiteSpace=wrap;html=1;glass=0;shadow=1;dashed=1;dashPattern=8 8;" parent="1" vertex="1">
          <mxGeometry x="642.63" y="400.88" width="151.5" height="180.75" as="geometry" />
        </mxCell>
        <mxCell id="0RovRk77VPgDUOQnuBlu-134" value="" style="rounded=1;whiteSpace=wrap;html=1;align=left;fillColor=#dae8fc;strokeColor=#6c8ebf;" parent="1" vertex="1">
          <mxGeometry x="99.25" y="632" width="120" height="250" as="geometry" />
        </mxCell>
        <mxCell id="WiGHZImvyhJi7AD07L18-1" value="input&lt;div&gt;image&lt;/div&gt;" style="text;html=1;align=center;verticalAlign=middle;resizable=0;points=[];autosize=1;strokeColor=none;fillColor=none;" parent="1" vertex="1">
          <mxGeometry x="53" y="115.01" width="60" height="40" as="geometry" />
        </mxCell>
        <mxCell id="WiGHZImvyhJi7AD07L18-3" value="" style="rounded=1;whiteSpace=wrap;html=1;fillColor=#e1d5e7;strokeColor=#9673a6;" parent="1" vertex="1">
          <mxGeometry x="103" y="120" width="2" height="100" as="geometry" />
        </mxCell>
        <mxCell id="WiGHZImvyhJi7AD07L18-4" value="&lt;font style=&quot;font-size: 10px;&quot;&gt;&lt;b&gt;224&lt;sup&gt;2&lt;/sup&gt;&lt;/b&gt;&lt;/font&gt;" style="text;html=1;align=center;verticalAlign=middle;resizable=0;points=[];autosize=1;strokeColor=none;fillColor=none;rotation=-90;" parent="1" vertex="1">
          <mxGeometry x="75" y="190" width="40" height="30" as="geometry" />
        </mxCell>
        <mxCell id="WiGHZImvyhJi7AD07L18-5" value="&lt;font style=&quot;font-size: 10px;&quot;&gt;&lt;b&gt;3&lt;/b&gt;&lt;/font&gt;" style="text;html=1;align=center;verticalAlign=middle;resizable=0;points=[];autosize=1;strokeColor=none;fillColor=none;rotation=0;" parent="1" vertex="1">
          <mxGeometry x="88.5" y="98" width="30" height="30" as="geometry" />
        </mxCell>
        <mxCell id="WiGHZImvyhJi7AD07L18-7" value="" style="shape=singleArrow;whiteSpace=wrap;html=1;arrowWidth=0.4;arrowSize=0.4;fillColor=#dae8fc;strokeColor=#6c8ebf;" parent="1" vertex="1">
          <mxGeometry x="108.5" y="155" width="28.5" height="20" as="geometry" />
        </mxCell>
        <mxCell id="WiGHZImvyhJi7AD07L18-8" value="" style="rounded=1;whiteSpace=wrap;html=1;fillColor=#e1d5e7;strokeColor=#9673a6;" parent="1" vertex="1">
          <mxGeometry x="140.25" y="120" width="4" height="100" as="geometry" />
        </mxCell>
        <mxCell id="WiGHZImvyhJi7AD07L18-9" value="&lt;font style=&quot;font-size: 10px;&quot;&gt;&lt;b&gt;32&lt;/b&gt;&lt;/font&gt;" style="text;html=1;align=center;verticalAlign=middle;resizable=0;points=[];autosize=1;strokeColor=none;fillColor=none;rotation=0;" parent="1" vertex="1">
          <mxGeometry x="126.5" y="99" width="30" height="30" as="geometry" />
        </mxCell>
        <mxCell id="WiGHZImvyhJi7AD07L18-11" value="" style="shape=singleArrow;whiteSpace=wrap;html=1;arrowWidth=0.4;arrowSize=0.4;fillColor=#dae8fc;strokeColor=#6c8ebf;" parent="1" vertex="1">
          <mxGeometry x="660.13" y="422.63" width="28.5" height="20" as="geometry" />
        </mxCell>
        <mxCell id="WiGHZImvyhJi7AD07L18-13" value="&lt;b&gt;initial_conv&lt;/b&gt;" style="text;html=1;align=left;verticalAlign=middle;resizable=0;points=[];autosize=1;strokeColor=none;fillColor=none;" parent="1" vertex="1">
          <mxGeometry x="691.13" y="416.13" width="90" height="30" as="geometry" />
        </mxCell>
        <mxCell id="TD2V-2ixZHrfdedo4fIX-2" value="" style="shape=singleArrow;whiteSpace=wrap;html=1;arrowWidth=0.4;arrowSize=0.4;fillColor=#ffe6cc;strokeColor=#d79b00;rotation=90;" parent="1" vertex="1">
          <mxGeometry x="128" y="226" width="28.5" height="20" as="geometry" />
        </mxCell>
        <mxCell id="TD2V-2ixZHrfdedo4fIX-3" value="" style="rounded=1;whiteSpace=wrap;html=1;fillColor=#e1d5e7;strokeColor=#9673a6;" parent="1" vertex="1">
          <mxGeometry x="137.51" y="261.25" width="8" height="100" as="geometry" />
        </mxCell>
        <mxCell id="TD2V-2ixZHrfdedo4fIX-4" value="&lt;font style=&quot;font-size: 10px;&quot;&gt;&lt;b&gt;64&lt;/b&gt;&lt;/font&gt;" style="text;html=1;align=center;verticalAlign=middle;resizable=0;points=[];autosize=1;strokeColor=none;fillColor=none;rotation=0;" parent="1" vertex="1">
          <mxGeometry x="127.25" y="241" width="30" height="30" as="geometry" />
        </mxCell>
        <mxCell id="0RovRk77VPgDUOQnuBlu-1" value="" style="shape=singleArrow;whiteSpace=wrap;html=1;arrowWidth=0.4;arrowSize=0.4;fillColor=#ffe6cc;strokeColor=#d79b00;rotation=0;" parent="1" vertex="1">
          <mxGeometry x="148.5" y="295" width="28.5" height="20" as="geometry" />
        </mxCell>
        <mxCell id="0RovRk77VPgDUOQnuBlu-3" value="" style="shape=singleArrow;whiteSpace=wrap;html=1;arrowWidth=0.4;arrowSize=0.4;fillColor=#ffe6cc;strokeColor=#d79b00;rotation=0;" parent="1" vertex="1">
          <mxGeometry x="660.13" y="446.63" width="28.5" height="20" as="geometry" />
        </mxCell>
        <mxCell id="0RovRk77VPgDUOQnuBlu-4" value="&lt;b&gt;encoder_block&lt;/b&gt;" style="text;html=1;align=left;verticalAlign=middle;resizable=0;points=[];autosize=1;strokeColor=none;fillColor=none;" parent="1" vertex="1">
          <mxGeometry x="690.13" y="440.63" width="110" height="30" as="geometry" />
        </mxCell>
        <mxCell id="0RovRk77VPgDUOQnuBlu-6" value="&lt;font style=&quot;font-size: 10px;&quot;&gt;&lt;b&gt;64&lt;/b&gt;&lt;/font&gt;" style="text;html=1;align=center;verticalAlign=middle;resizable=0;points=[];autosize=1;strokeColor=none;fillColor=none;rotation=0;" parent="1" vertex="1">
          <mxGeometry x="168.88" y="242" width="30" height="30" as="geometry" />
        </mxCell>
        <mxCell id="0RovRk77VPgDUOQnuBlu-10" value="" style="shape=singleArrow;whiteSpace=wrap;html=1;arrowWidth=0.4;arrowSize=0.4;fillColor=#ffe6cc;strokeColor=#d79b00;rotation=90;" parent="1" vertex="1">
          <mxGeometry x="169.75" y="368.25" width="28.5" height="20" as="geometry" />
        </mxCell>
        <mxCell id="0RovRk77VPgDUOQnuBlu-11" value="" style="rounded=1;whiteSpace=wrap;html=1;fillColor=#e1d5e7;strokeColor=#9673a6;" parent="1" vertex="1">
          <mxGeometry x="176.5" y="404" width="16" height="50" as="geometry" />
        </mxCell>
        <mxCell id="0RovRk77VPgDUOQnuBlu-12" value="&lt;font style=&quot;font-size: 10px;&quot;&gt;&lt;b&gt;128&lt;/b&gt;&lt;/font&gt;" style="text;html=1;align=center;verticalAlign=middle;resizable=0;points=[];autosize=1;strokeColor=none;fillColor=none;rotation=0;" parent="1" vertex="1">
          <mxGeometry x="164" y="384" width="40" height="30" as="geometry" />
        </mxCell>
        <mxCell id="0RovRk77VPgDUOQnuBlu-13" value="" style="shape=singleArrow;whiteSpace=wrap;html=1;arrowWidth=0.4;arrowSize=0.4;fillColor=#ffe6cc;strokeColor=#d79b00;rotation=0;" parent="1" vertex="1">
          <mxGeometry x="194" y="419" width="28.5" height="20" as="geometry" />
        </mxCell>
        <mxCell id="0RovRk77VPgDUOQnuBlu-23" value="" style="shape=singleArrow;whiteSpace=wrap;html=1;arrowWidth=0.4;arrowSize=0.4;fillColor=#ffe6cc;strokeColor=#d79b00;rotation=90;" parent="1" vertex="1">
          <mxGeometry x="217.25" y="460.25" width="28.5" height="20" as="geometry" />
        </mxCell>
        <mxCell id="0RovRk77VPgDUOQnuBlu-24" value="&lt;font style=&quot;font-size: 10px;&quot;&gt;&lt;b&gt;256&lt;/b&gt;&lt;/font&gt;" style="text;html=1;align=center;verticalAlign=middle;resizable=0;points=[];autosize=1;strokeColor=none;fillColor=none;rotation=0;" parent="1" vertex="1">
          <mxGeometry x="211.13" y="475.25" width="40" height="30" as="geometry" />
        </mxCell>
        <mxCell id="0RovRk77VPgDUOQnuBlu-25" value="" style="rounded=1;whiteSpace=wrap;html=1;fillColor=#e1d5e7;strokeColor=#9673a6;" parent="1" vertex="1">
          <mxGeometry x="215.25" y="495.5" width="32" height="25" as="geometry" />
        </mxCell>
        <mxCell id="0RovRk77VPgDUOQnuBlu-26" value="&lt;span style=&quot;font-size: 10px;&quot;&gt;&lt;b&gt;56&lt;sup&gt;2&lt;/sup&gt;&lt;/b&gt;&lt;/span&gt;" style="text;html=1;align=center;verticalAlign=middle;resizable=0;points=[];autosize=1;strokeColor=none;fillColor=none;rotation=-90;" parent="1" vertex="1">
          <mxGeometry x="189" y="504.5" width="40" height="30" as="geometry" />
        </mxCell>
        <mxCell id="0RovRk77VPgDUOQnuBlu-27" value="" style="shape=singleArrow;whiteSpace=wrap;html=1;arrowWidth=0.4;arrowSize=0.4;fillColor=#ffe6cc;strokeColor=#d79b00;rotation=0;" parent="1" vertex="1">
          <mxGeometry x="249" y="498" width="28.5" height="20" as="geometry" />
        </mxCell>
        <mxCell id="0RovRk77VPgDUOQnuBlu-31" value="" style="shape=singleArrow;whiteSpace=wrap;html=1;arrowWidth=0.4;arrowSize=0.4;fillColor=#ffe6cc;strokeColor=#d79b00;rotation=90;" parent="1" vertex="1">
          <mxGeometry x="280.2500000000001" y="528" width="28.5" height="20" as="geometry" />
        </mxCell>
        <mxCell id="0RovRk77VPgDUOQnuBlu-32" value="&lt;font style=&quot;font-size: 10px;&quot;&gt;&lt;b&gt;512&lt;/b&gt;&lt;/font&gt;" style="text;html=1;align=center;verticalAlign=middle;resizable=0;points=[];autosize=1;strokeColor=none;fillColor=none;rotation=0;" parent="1" vertex="1">
          <mxGeometry x="273.5000000000001" y="541.5" width="40" height="30" as="geometry" />
        </mxCell>
        <mxCell id="0RovRk77VPgDUOQnuBlu-33" value="" style="rounded=1;whiteSpace=wrap;html=1;fillColor=#e1d5e7;strokeColor=#9673a6;" parent="1" vertex="1">
          <mxGeometry x="262.5000000000001" y="561.5" width="64" height="12.5" as="geometry" />
        </mxCell>
        <mxCell id="0RovRk77VPgDUOQnuBlu-35" value="&lt;span style=&quot;font-size: 10px;&quot;&gt;&lt;b&gt;28&lt;sup&gt;2&lt;/sup&gt;&lt;/b&gt;&lt;/span&gt;" style="text;html=1;align=center;verticalAlign=middle;resizable=0;points=[];autosize=1;strokeColor=none;fillColor=none;rotation=-90;" parent="1" vertex="1">
          <mxGeometry x="235.13" y="562.5" width="40" height="30" as="geometry" />
        </mxCell>
        <mxCell id="0RovRk77VPgDUOQnuBlu-36" value="" style="shape=singleArrow;whiteSpace=wrap;html=1;arrowWidth=0.4;arrowSize=0.4;fillColor=#ffe6cc;strokeColor=#d79b00;rotation=0;" parent="1" vertex="1">
          <mxGeometry x="327.5000000000001" y="557.75" width="28.5" height="20" as="geometry" />
        </mxCell>
        <mxCell id="0RovRk77VPgDUOQnuBlu-40" value="" style="shape=singleArrow;whiteSpace=wrap;html=1;arrowWidth=0.4;arrowSize=0.4;rotation=0;" parent="1" vertex="1">
          <mxGeometry x="424" y="557.75" width="28.5" height="20" as="geometry" />
        </mxCell>
        <mxCell id="0RovRk77VPgDUOQnuBlu-41" value="" style="shape=singleArrow;whiteSpace=wrap;html=1;arrowWidth=0.4;arrowSize=0.4;rotation=0;" parent="1" vertex="1">
          <mxGeometry x="660.13" y="470.63" width="28.5" height="20" as="geometry" />
        </mxCell>
        <mxCell id="0RovRk77VPgDUOQnuBlu-42" value="&lt;b&gt;bottleneck&lt;/b&gt;" style="text;html=1;align=left;verticalAlign=middle;resizable=0;points=[];autosize=1;strokeColor=none;fillColor=none;" parent="1" vertex="1">
          <mxGeometry x="690.13" y="465.63" width="80" height="30" as="geometry" />
        </mxCell>
        <mxCell id="0RovRk77VPgDUOQnuBlu-46" value="" style="shape=singleArrow;whiteSpace=wrap;html=1;arrowWidth=0.4;arrowSize=0.4;fillColor=#d5e8d4;strokeColor=#82b366;rotation=-90;" parent="1" vertex="1">
          <mxGeometry x="471.7500000000001" y="527" width="28.5" height="20" as="geometry" />
        </mxCell>
        <mxCell id="0RovRk77VPgDUOQnuBlu-47" value="&lt;font style=&quot;font-size: 10px;&quot;&gt;&lt;b&gt;512&lt;/b&gt;&lt;/font&gt;" style="text;html=1;align=center;verticalAlign=middle;resizable=0;points=[];autosize=1;strokeColor=none;fillColor=none;rotation=0;" parent="1" vertex="1">
          <mxGeometry x="451" y="476.25" width="40" height="30" as="geometry" />
        </mxCell>
        <mxCell id="0RovRk77VPgDUOQnuBlu-48" value="" style="rounded=1;whiteSpace=wrap;html=1;fillColor=#e1d5e7;strokeColor=#9673a6;" parent="1" vertex="1">
          <mxGeometry x="470.0000000000001" y="496.5" width="32" height="25" as="geometry" />
        </mxCell>
        <mxCell id="0RovRk77VPgDUOQnuBlu-50" value="" style="rounded=1;whiteSpace=wrap;html=1;dashed=1;fillColor=#f5f5f5;fontColor=#333333;strokeColor=#666666;" parent="1" vertex="1">
          <mxGeometry x="439" y="496.5" width="32" height="25" as="geometry" />
        </mxCell>
        <mxCell id="0RovRk77VPgDUOQnuBlu-51" value="" style="shape=singleArrow;whiteSpace=wrap;html=1;arrowWidth=0.4551724137930989;arrowSize=0.173957797220792;fillColor=#f5f5f5;strokeColor=light-dark(#bcb9b9, #959595);rotation=0;fontColor=#333333;" parent="1" vertex="1">
          <mxGeometry x="325.5" y="498" width="100.5" height="20" as="geometry" />
        </mxCell>
        <mxCell id="0RovRk77VPgDUOQnuBlu-52" value="" style="shape=singleArrow;whiteSpace=wrap;html=1;arrowWidth=0.4;arrowSize=0.4;fillColor=#f5f5f5;strokeColor=light-dark(#b8b7b7, #959595);rotation=0;fontColor=#333333;" parent="1" vertex="1">
          <mxGeometry x="660.13" y="494.63" width="28.5" height="20" as="geometry" />
        </mxCell>
        <mxCell id="0RovRk77VPgDUOQnuBlu-53" value="&lt;b&gt;copy and crop&lt;/b&gt;" style="text;html=1;align=left;verticalAlign=middle;resizable=0;points=[];autosize=1;strokeColor=none;fillColor=none;" parent="1" vertex="1">
          <mxGeometry x="690.13" y="489.63" width="110" height="30" as="geometry" />
        </mxCell>
        <mxCell id="0RovRk77VPgDUOQnuBlu-54" value="" style="shape=singleArrow;whiteSpace=wrap;html=1;arrowWidth=0.4;arrowSize=0.4;fillColor=#f8cecc;strokeColor=#b85450;rotation=0;" parent="1" vertex="1">
          <mxGeometry x="504.0000000000001" y="498" width="28.5" height="20" as="geometry" />
        </mxCell>
        <mxCell id="0RovRk77VPgDUOQnuBlu-55" value="" style="shape=singleArrow;whiteSpace=wrap;html=1;arrowWidth=0.4;arrowSize=0.4;fillColor=#d5e8d4;strokeColor=#82b366;rotation=0;" parent="1" vertex="1">
          <mxGeometry x="660.13" y="518.63" width="28.5" height="20" as="geometry" />
        </mxCell>
        <mxCell id="0RovRk77VPgDUOQnuBlu-56" value="&lt;b&gt;up-conv&lt;/b&gt;" style="text;html=1;align=left;verticalAlign=middle;resizable=0;points=[];autosize=1;strokeColor=none;fillColor=none;" parent="1" vertex="1">
          <mxGeometry x="690.13" y="512.63" width="70" height="30" as="geometry" />
        </mxCell>
        <mxCell id="0RovRk77VPgDUOQnuBlu-58" value="&lt;font style=&quot;font-size: 10px;&quot;&gt;&lt;b&gt;256&lt;/b&gt;&lt;/font&gt;" style="text;html=1;align=center;verticalAlign=middle;resizable=0;points=[];autosize=1;strokeColor=none;fillColor=none;rotation=0;" parent="1" vertex="1">
          <mxGeometry x="530.2000000000002" y="476.25" width="40" height="30" as="geometry" />
        </mxCell>
        <mxCell id="0RovRk77VPgDUOQnuBlu-60" value="" style="shape=singleArrow;whiteSpace=wrap;html=1;arrowWidth=0.4;arrowSize=0.4;fillColor=#f8cecc;strokeColor=#b85450;rotation=0;" parent="1" vertex="1">
          <mxGeometry x="660.13" y="542.63" width="28.5" height="20" as="geometry" />
        </mxCell>
        <mxCell id="0RovRk77VPgDUOQnuBlu-61" value="&lt;b&gt;decoder_block&lt;/b&gt;" style="text;html=1;align=left;verticalAlign=middle;resizable=0;points=[];autosize=1;strokeColor=none;fillColor=none;" parent="1" vertex="1">
          <mxGeometry x="690.13" y="536.63" width="110" height="30" as="geometry" />
        </mxCell>
        <mxCell id="0RovRk77VPgDUOQnuBlu-62" value="" style="shape=singleArrow;whiteSpace=wrap;html=1;arrowWidth=0.4;arrowSize=0.4;fillColor=#d5e8d4;strokeColor=#82b366;rotation=-90;" parent="1" vertex="1">
          <mxGeometry x="535.7000000000002" y="461.25" width="28.5" height="20" as="geometry" />
        </mxCell>
        <mxCell id="0RovRk77VPgDUOQnuBlu-66" value="" style="rounded=1;whiteSpace=wrap;html=1;fillColor=#f5f5f5;strokeColor=#666666;dashed=1;fontColor=#333333;" parent="1" vertex="1">
          <mxGeometry x="526.0700000000002" y="405.25" width="16" height="50" as="geometry" />
        </mxCell>
        <mxCell id="0RovRk77VPgDUOQnuBlu-68" value="" style="shape=singleArrow;whiteSpace=wrap;html=1;arrowWidth=0.45555555555556;arrowSize=0.08586762075134188;fillColor=#f5f5f5;strokeColor=light-dark(#bcb9b9, #959595);rotation=0;fontColor=#333333;" parent="1" vertex="1">
          <mxGeometry x="249" y="420.25" width="268.5" height="20" as="geometry" />
        </mxCell>
        <mxCell id="0RovRk77VPgDUOQnuBlu-69" value="" style="shape=singleArrow;whiteSpace=wrap;html=1;arrowWidth=0.4;arrowSize=0.4;fillColor=#f8cecc;strokeColor=#b85450;rotation=0;" parent="1" vertex="1">
          <mxGeometry x="560.1300000000001" y="420.25" width="28.5" height="20" as="geometry" />
        </mxCell>
        <mxCell id="0RovRk77VPgDUOQnuBlu-73" value="" style="shape=singleArrow;whiteSpace=wrap;html=1;arrowWidth=0.4;arrowSize=0.4;fillColor=#d5e8d4;strokeColor=#82b366;rotation=-90;" parent="1" vertex="1">
          <mxGeometry x="584.38" y="371" width="28.5" height="20" as="geometry" />
        </mxCell>
        <mxCell id="0RovRk77VPgDUOQnuBlu-76" value="" style="rounded=1;whiteSpace=wrap;html=1;fillColor=#f5f5f5;strokeColor=#666666;dashed=1;fontColor=#333333;" parent="1" vertex="1">
          <mxGeometry x="586.63" y="264.25" width="8" height="100" as="geometry" />
        </mxCell>
        <mxCell id="0RovRk77VPgDUOQnuBlu-79" value="" style="shape=singleArrow;whiteSpace=wrap;html=1;arrowWidth=0.44173441734417285;arrowSize=0.05241605241605223;fillColor=#f5f5f5;strokeColor=light-dark(#bcb9b9, #959595);rotation=0;fontColor=#333333;" parent="1" vertex="1">
          <mxGeometry x="199.5" y="295" width="375.5" height="20.5" as="geometry" />
        </mxCell>
        <mxCell id="0RovRk77VPgDUOQnuBlu-81" value="" style="shape=singleArrow;whiteSpace=wrap;html=1;arrowWidth=0.4;arrowSize=0.4;fillColor=#f8cecc;strokeColor=#b85450;rotation=0;" parent="1" vertex="1">
          <mxGeometry x="605" y="295" width="28.5" height="20" as="geometry" />
        </mxCell>
        <mxCell id="0RovRk77VPgDUOQnuBlu-88" value="" style="rounded=1;whiteSpace=wrap;html=1;fillColor=#f5f5f5;strokeColor=#666666;fontColor=#333333;dashed=1;" parent="1" vertex="1">
          <mxGeometry x="634.63" y="123" width="4" height="100" as="geometry" />
        </mxCell>
        <mxCell id="0RovRk77VPgDUOQnuBlu-89" value="&lt;font style=&quot;font-size: 10px;&quot;&gt;&lt;b&gt;64&lt;/b&gt;&lt;/font&gt;" style="text;html=1;align=center;verticalAlign=middle;resizable=0;points=[];autosize=1;strokeColor=none;fillColor=none;rotation=0;" parent="1" vertex="1">
          <mxGeometry x="622.63" y="102" width="30" height="30" as="geometry" />
        </mxCell>
        <mxCell id="0RovRk77VPgDUOQnuBlu-90" value="" style="shape=singleArrow;whiteSpace=wrap;html=1;arrowWidth=0.4145758661887754;arrowSize=0.03970096426240311;fillColor=#f5f5f5;strokeColor=light-dark(#bcb9b9, #959595);rotation=0;fontColor=#333333;" parent="1" vertex="1">
          <mxGeometry x="157.5" y="153.38" width="467.5" height="23.25" as="geometry" />
        </mxCell>
        <mxCell id="0RovRk77VPgDUOQnuBlu-91" value="" style="shape=singleArrow;whiteSpace=wrap;html=1;arrowWidth=0.4;arrowSize=0.4;fillColor=#f8cecc;strokeColor=#b85450;rotation=0;" parent="1" vertex="1">
          <mxGeometry x="646" y="154.37" width="28.5" height="20" as="geometry" />
        </mxCell>
        <mxCell id="0RovRk77VPgDUOQnuBlu-93" value="&lt;font style=&quot;font-size: 10px;&quot;&gt;&lt;b&gt;32&lt;/b&gt;&lt;/font&gt;" style="text;html=1;align=center;verticalAlign=middle;resizable=0;points=[];autosize=1;strokeColor=none;fillColor=none;rotation=0;" parent="1" vertex="1">
          <mxGeometry x="663.5" y="102" width="30" height="30" as="geometry" />
        </mxCell>
        <mxCell id="0RovRk77VPgDUOQnuBlu-95" value="conv" style="shape=singleArrow;whiteSpace=wrap;html=1;arrowWidth=0.2941034482758539;arrowSize=0.49546279491833534;fillColor=#d5e8d4;strokeColor=#82b366;rotation=0;fontSize=8;fontStyle=1" parent="1" vertex="1">
          <mxGeometry x="684" y="155.01" width="28.5" height="20" as="geometry" />
        </mxCell>
        <mxCell id="0RovRk77VPgDUOQnuBlu-96" value="" style="rounded=1;whiteSpace=wrap;html=1;fillColor=#e1d5e7;strokeColor=#9673a6;" parent="1" vertex="1">
          <mxGeometry x="714.5" y="123" width="2" height="100" as="geometry" />
        </mxCell>
        <mxCell id="0RovRk77VPgDUOQnuBlu-97" value="&lt;font style=&quot;font-size: 10px;&quot;&gt;&lt;b&gt;num_classes&lt;/b&gt;&lt;/font&gt;" style="text;html=1;align=center;verticalAlign=middle;resizable=0;points=[];autosize=1;strokeColor=none;fillColor=none;rotation=0;" parent="1" vertex="1">
          <mxGeometry x="679" y="100" width="90" height="30" as="geometry" />
        </mxCell>
        <mxCell id="0RovRk77VPgDUOQnuBlu-98" value="&lt;font style=&quot;font-size: 10px;&quot;&gt;&lt;b&gt;224&lt;sup&gt;2&lt;/sup&gt;&lt;/b&gt;&lt;/font&gt;" style="text;html=1;align=center;verticalAlign=middle;resizable=0;points=[];autosize=1;strokeColor=none;fillColor=none;rotation=-90;" parent="1" vertex="1">
          <mxGeometry x="703" y="192" width="40" height="30" as="geometry" />
        </mxCell>
        <mxCell id="0RovRk77VPgDUOQnuBlu-112" value="input" style="text;html=1;align=center;verticalAlign=middle;resizable=0;points=[];autosize=1;strokeColor=none;fillColor=none;" parent="1" vertex="1">
          <mxGeometry x="135" y="665" width="50" height="30" as="geometry" />
        </mxCell>
        <mxCell id="0RovRk77VPgDUOQnuBlu-114" value="Conv&lt;div&gt;3×3&lt;/div&gt;" style="rounded=1;whiteSpace=wrap;html=1;" parent="1" vertex="1">
          <mxGeometry x="124.5" y="712" width="69.5" height="35" as="geometry" />
        </mxCell>
        <mxCell id="0RovRk77VPgDUOQnuBlu-120" value="BN" style="rounded=1;whiteSpace=wrap;html=1;" parent="1" vertex="1">
          <mxGeometry x="124.5" y="768" width="69.5" height="35" as="geometry" />
        </mxCell>
        <mxCell id="0RovRk77VPgDUOQnuBlu-126" value="" style="endArrow=none;html=1;rounded=0;entryX=0.482;entryY=0.989;entryDx=0;entryDy=0;entryPerimeter=0;exitX=0.5;exitY=0;exitDx=0;exitDy=0;" parent="1" source="0RovRk77VPgDUOQnuBlu-114" target="0RovRk77VPgDUOQnuBlu-112" edge="1">
          <mxGeometry width="50" height="50" relative="1" as="geometry">
            <mxPoint x="401" y="772" as="sourcePoint" />
            <mxPoint x="451" y="722" as="targetPoint" />
          </mxGeometry>
        </mxCell>
        <mxCell id="0RovRk77VPgDUOQnuBlu-127" value="" style="endArrow=none;html=1;rounded=0;exitX=0.5;exitY=0;exitDx=0;exitDy=0;entryX=0.5;entryY=1;entryDx=0;entryDy=0;" parent="1" target="0RovRk77VPgDUOQnuBlu-114" edge="1">
          <mxGeometry width="50" height="50" relative="1" as="geometry">
            <mxPoint x="159.25" y="768" as="sourcePoint" />
            <mxPoint x="159" y="750" as="targetPoint" />
          </mxGeometry>
        </mxCell>
        <mxCell id="0RovRk77VPgDUOQnuBlu-129" value="" style="endArrow=none;html=1;rounded=0;entryX=0.5;entryY=1;entryDx=0;entryDy=0;exitX=0.5;exitY=0;exitDx=0;exitDy=0;" parent="1" edge="1">
          <mxGeometry width="50" height="50" relative="1" as="geometry">
            <mxPoint x="159.25" y="819" as="sourcePoint" />
            <mxPoint x="159.25" y="804" as="targetPoint" />
          </mxGeometry>
        </mxCell>
        <mxCell id="0RovRk77VPgDUOQnuBlu-131" value="" style="endArrow=classic;html=1;rounded=0;exitX=0.5;exitY=1;exitDx=0;exitDy=0;" parent="1" edge="1">
          <mxGeometry width="50" height="50" relative="1" as="geometry">
            <mxPoint x="159.16" y="818.9999999999998" as="sourcePoint" />
            <mxPoint x="158.91" y="844" as="targetPoint" />
          </mxGeometry>
        </mxCell>
        <mxCell id="0RovRk77VPgDUOQnuBlu-135" value="initial_conv" style="text;html=1;align=center;verticalAlign=middle;resizable=0;points=[];autosize=1;strokeColor=none;fillColor=none;fontStyle=1" parent="1" vertex="1">
          <mxGeometry x="121.25" y="638" width="80" height="30" as="geometry" />
        </mxCell>
        <mxCell id="0RovRk77VPgDUOQnuBlu-136" value="" style="rounded=1;whiteSpace=wrap;html=1;align=left;fillColor=#ffe6cc;strokeColor=#d79b00;" parent="1" vertex="1">
          <mxGeometry x="261" y="632" width="120" height="250" as="geometry" />
        </mxCell>
        <mxCell id="0RovRk77VPgDUOQnuBlu-137" value="input" style="text;html=1;align=center;verticalAlign=middle;resizable=0;points=[];autosize=1;strokeColor=none;fillColor=none;" parent="1" vertex="1">
          <mxGeometry x="296.75" y="662" width="50" height="30" as="geometry" />
        </mxCell>
        <mxCell id="0RovRk77VPgDUOQnuBlu-138" value="ResAttentionBlock" style="rounded=1;whiteSpace=wrap;html=1;" parent="1" vertex="1">
          <mxGeometry x="264.63" y="711" width="112.75" height="35" as="geometry" />
        </mxCell>
        <mxCell id="0RovRk77VPgDUOQnuBlu-140" value="" style="endArrow=none;html=1;rounded=0;entryX=0.482;entryY=0.989;entryDx=0;entryDy=0;entryPerimeter=0;exitX=0.5;exitY=0;exitDx=0;exitDy=0;" parent="1" source="0RovRk77VPgDUOQnuBlu-138" target="0RovRk77VPgDUOQnuBlu-137" edge="1">
          <mxGeometry width="50" height="50" relative="1" as="geometry">
            <mxPoint x="562.75" y="772" as="sourcePoint" />
            <mxPoint x="612.75" y="722" as="targetPoint" />
          </mxGeometry>
        </mxCell>
        <mxCell id="0RovRk77VPgDUOQnuBlu-141" value="" style="endArrow=none;html=1;rounded=0;entryX=0.5;entryY=1;entryDx=0;entryDy=0;exitX=0.5;exitY=0;exitDx=0;exitDy=0;" parent="1" source="0RovRk77VPgDUOQnuBlu-146" target="0RovRk77VPgDUOQnuBlu-138" edge="1">
          <mxGeometry width="50" height="50" relative="1" as="geometry">
            <mxPoint x="321" y="752" as="sourcePoint" />
            <mxPoint x="612.75" y="722" as="targetPoint" />
          </mxGeometry>
        </mxCell>
        <mxCell id="0RovRk77VPgDUOQnuBlu-145" value="encoder_block" style="text;html=1;align=center;verticalAlign=middle;resizable=0;points=[];autosize=1;strokeColor=none;fillColor=none;fontStyle=1" parent="1" vertex="1">
          <mxGeometry x="273" y="638" width="100" height="30" as="geometry" />
        </mxCell>
        <mxCell id="0RovRk77VPgDUOQnuBlu-146" value="ResAttentionBlock" style="rounded=1;whiteSpace=wrap;html=1;" parent="1" vertex="1">
          <mxGeometry x="264.63" y="771" width="112.75" height="35" as="geometry" />
        </mxCell>
        <mxCell id="0RovRk77VPgDUOQnuBlu-148" value="" style="endArrow=classic;html=1;rounded=0;exitX=0.5;exitY=1;exitDx=0;exitDy=0;" parent="1" edge="1">
          <mxGeometry width="50" height="50" relative="1" as="geometry">
            <mxPoint x="320.38" y="806" as="sourcePoint" />
            <mxPoint x="320.38" y="846" as="targetPoint" />
          </mxGeometry>
        </mxCell>
        <mxCell id="0RovRk77VPgDUOQnuBlu-149" value="" style="rounded=1;whiteSpace=wrap;html=1;align=left;fillColor=#ffe6cc;strokeColor=#d79b00;" parent="1" vertex="1">
          <mxGeometry x="420.13" y="631" width="280.87" height="250" as="geometry" />
        </mxCell>
        <mxCell id="0RovRk77VPgDUOQnuBlu-150" value="ResAttentionBlock" style="text;html=1;align=center;verticalAlign=middle;resizable=0;points=[];autosize=1;strokeColor=none;fillColor=none;fontStyle=1" parent="1" vertex="1">
          <mxGeometry x="500.56999999999994" y="638" width="120" height="30" as="geometry" />
        </mxCell>
        <mxCell id="0RovRk77VPgDUOQnuBlu-151" value="input&lt;div&gt;(stride=1)&lt;/div&gt;" style="text;html=1;align=center;verticalAlign=middle;resizable=0;points=[];autosize=1;strokeColor=none;fillColor=none;" parent="1" vertex="1">
          <mxGeometry x="446.63" y="657" width="70" height="40" as="geometry" />
        </mxCell>
        <mxCell id="0RovRk77VPgDUOQnuBlu-152" value="Conv&lt;div&gt;3×3&lt;/div&gt;" style="rounded=1;whiteSpace=wrap;html=1;" parent="1" vertex="1">
          <mxGeometry x="446.88" y="711" width="69.5" height="35" as="geometry" />
        </mxCell>
        <mxCell id="0RovRk77VPgDUOQnuBlu-153" value="Conv&lt;div&gt;3×3&lt;/div&gt;" style="rounded=1;whiteSpace=wrap;html=1;" parent="1" vertex="1">
          <mxGeometry x="446.88" y="767" width="69.5" height="35" as="geometry" />
        </mxCell>
        <mxCell id="0RovRk77VPgDUOQnuBlu-154" value="" style="endArrow=none;html=1;rounded=0;entryX=0.494;entryY=1.03;entryDx=0;entryDy=0;entryPerimeter=0;exitX=0.5;exitY=0;exitDx=0;exitDy=0;" parent="1" source="0RovRk77VPgDUOQnuBlu-152" target="0RovRk77VPgDUOQnuBlu-151" edge="1">
          <mxGeometry width="50" height="50" relative="1" as="geometry">
            <mxPoint x="381" y="831" as="sourcePoint" />
            <mxPoint x="431" y="781" as="targetPoint" />
            <Array as="points">
              <mxPoint x="481" y="701" />
            </Array>
          </mxGeometry>
        </mxCell>
        <mxCell id="0RovRk77VPgDUOQnuBlu-155" value="" style="endArrow=none;html=1;rounded=0;exitX=0.5;exitY=0;exitDx=0;exitDy=0;entryX=0.5;entryY=1;entryDx=0;entryDy=0;" parent="1" source="0RovRk77VPgDUOQnuBlu-153" target="0RovRk77VPgDUOQnuBlu-152" edge="1">
          <mxGeometry width="50" height="50" relative="1" as="geometry">
            <mxPoint x="381" y="831" as="sourcePoint" />
            <mxPoint x="431" y="781" as="targetPoint" />
          </mxGeometry>
        </mxCell>
        <mxCell id="0RovRk77VPgDUOQnuBlu-156" value="" style="endArrow=classic;html=1;rounded=0;exitX=0.5;exitY=1;exitDx=0;exitDy=0;" parent="1" edge="1">
          <mxGeometry width="50" height="50" relative="1" as="geometry">
            <mxPoint x="481.35" y="802" as="sourcePoint" />
            <mxPoint x="481.35" y="842" as="targetPoint" />
          </mxGeometry>
        </mxCell>
        <mxCell id="0RovRk77VPgDUOQnuBlu-159" value="" style="strokeWidth=1;html=1;shape=mxgraph.flowchart.annotation_1;align=left;pointerEvents=1;" parent="1" vertex="1">
          <mxGeometry x="434" y="701" width="47" height="120" as="geometry" />
        </mxCell>
        <mxCell id="0RovRk77VPgDUOQnuBlu-160" value="input&lt;div&gt;(stride=2)&lt;/div&gt;" style="text;html=1;align=center;verticalAlign=middle;resizable=0;points=[];autosize=1;strokeColor=none;fillColor=none;" parent="1" vertex="1">
          <mxGeometry x="592" y="657" width="70" height="40" as="geometry" />
        </mxCell>
        <mxCell id="0RovRk77VPgDUOQnuBlu-161" value="Conv&lt;div&gt;3×3&lt;/div&gt;" style="rounded=1;whiteSpace=wrap;html=1;" parent="1" vertex="1">
          <mxGeometry x="595.5" y="711" width="69.5" height="35" as="geometry" />
        </mxCell>
        <mxCell id="0RovRk77VPgDUOQnuBlu-162" value="Conv&lt;div&gt;3×3&lt;/div&gt;" style="rounded=1;whiteSpace=wrap;html=1;" parent="1" vertex="1">
          <mxGeometry x="595.5" y="767" width="69.5" height="35" as="geometry" />
        </mxCell>
        <mxCell id="0RovRk77VPgDUOQnuBlu-163" value="" style="strokeWidth=1;html=1;shape=mxgraph.flowchart.annotation_1;align=left;pointerEvents=1;" parent="1" vertex="1">
          <mxGeometry x="558" y="701" width="72" height="120" as="geometry" />
        </mxCell>
        <mxCell id="0RovRk77VPgDUOQnuBlu-164" value="Conv&lt;div&gt;1×1&lt;/div&gt;" style="rounded=1;whiteSpace=wrap;html=1;" parent="1" vertex="1">
          <mxGeometry x="538.0699999999999" y="743.5" width="41.13" height="35" as="geometry" />
        </mxCell>
        <mxCell id="0RovRk77VPgDUOQnuBlu-165" value="" style="endArrow=none;html=1;rounded=0;entryX=0.543;entryY=0.953;entryDx=0;entryDy=0;entryPerimeter=0;exitX=0.5;exitY=0;exitDx=0;exitDy=0;" parent="1" source="0RovRk77VPgDUOQnuBlu-161" target="0RovRk77VPgDUOQnuBlu-160" edge="1">
          <mxGeometry width="50" height="50" relative="1" as="geometry">
            <mxPoint x="381" y="831" as="sourcePoint" />
            <mxPoint x="431" y="781" as="targetPoint" />
          </mxGeometry>
        </mxCell>
        <mxCell id="0RovRk77VPgDUOQnuBlu-166" value="" style="endArrow=none;html=1;rounded=0;entryX=0.5;entryY=1;entryDx=0;entryDy=0;exitX=0.5;exitY=0;exitDx=0;exitDy=0;" parent="1" source="0RovRk77VPgDUOQnuBlu-162" target="0RovRk77VPgDUOQnuBlu-161" edge="1">
          <mxGeometry width="50" height="50" relative="1" as="geometry">
            <mxPoint x="381" y="831" as="sourcePoint" />
            <mxPoint x="431" y="781" as="targetPoint" />
          </mxGeometry>
        </mxCell>
        <mxCell id="0RovRk77VPgDUOQnuBlu-167" value="" style="endArrow=classic;html=1;rounded=0;exitX=0.5;exitY=1;exitDx=0;exitDy=0;" parent="1" edge="1">
          <mxGeometry width="50" height="50" relative="1" as="geometry">
            <mxPoint x="630" y="802" as="sourcePoint" />
            <mxPoint x="630" y="842" as="targetPoint" />
          </mxGeometry>
        </mxCell>
        <mxCell id="0RovRk77VPgDUOQnuBlu-168" value="Attention" style="rounded=1;whiteSpace=wrap;html=1;" parent="1" vertex="1">
          <mxGeometry x="443.12" y="842" width="77.01" height="35" as="geometry" />
        </mxCell>
        <mxCell id="0RovRk77VPgDUOQnuBlu-169" value="Attention" style="rounded=1;whiteSpace=wrap;html=1;" parent="1" vertex="1">
          <mxGeometry x="591.74" y="842" width="77.01" height="35" as="geometry" />
        </mxCell>
        <mxCell id="0RovRk77VPgDUOQnuBlu-171" value="" style="rounded=1;whiteSpace=wrap;html=1;align=left;" parent="1" vertex="1">
          <mxGeometry x="100" y="911" width="120" height="250" as="geometry" />
        </mxCell>
        <mxCell id="0RovRk77VPgDUOQnuBlu-172" value="input" style="text;html=1;align=center;verticalAlign=middle;resizable=0;points=[];autosize=1;strokeColor=none;fillColor=none;" parent="1" vertex="1">
          <mxGeometry x="135.75" y="941" width="50" height="30" as="geometry" />
        </mxCell>
        <mxCell id="0RovRk77VPgDUOQnuBlu-173" value="ResAttentionBlock" style="rounded=1;whiteSpace=wrap;html=1;" parent="1" vertex="1">
          <mxGeometry x="103.63" y="990" width="112.75" height="35" as="geometry" />
        </mxCell>
        <mxCell id="0RovRk77VPgDUOQnuBlu-174" value="" style="endArrow=none;html=1;rounded=0;entryX=0.482;entryY=0.989;entryDx=0;entryDy=0;entryPerimeter=0;exitX=0.5;exitY=0;exitDx=0;exitDy=0;" parent="1" source="0RovRk77VPgDUOQnuBlu-173" target="0RovRk77VPgDUOQnuBlu-172" edge="1">
          <mxGeometry width="50" height="50" relative="1" as="geometry">
            <mxPoint x="401.75" y="1051" as="sourcePoint" />
            <mxPoint x="451.75" y="1001" as="targetPoint" />
          </mxGeometry>
        </mxCell>
        <mxCell id="0RovRk77VPgDUOQnuBlu-175" value="" style="endArrow=none;html=1;rounded=0;entryX=0.5;entryY=1;entryDx=0;entryDy=0;exitX=0.5;exitY=0;exitDx=0;exitDy=0;" parent="1" source="0RovRk77VPgDUOQnuBlu-177" target="0RovRk77VPgDUOQnuBlu-173" edge="1">
          <mxGeometry width="50" height="50" relative="1" as="geometry">
            <mxPoint x="160" y="1031" as="sourcePoint" />
            <mxPoint x="451.75" y="1001" as="targetPoint" />
          </mxGeometry>
        </mxCell>
        <mxCell id="0RovRk77VPgDUOQnuBlu-176" value="bottleneck" style="text;html=1;align=center;verticalAlign=middle;resizable=0;points=[];autosize=1;strokeColor=none;fillColor=none;fontStyle=1" parent="1" vertex="1">
          <mxGeometry x="122" y="917" width="80" height="30" as="geometry" />
        </mxCell>
        <mxCell id="0RovRk77VPgDUOQnuBlu-177" value="ResAttentionBlock" style="rounded=1;whiteSpace=wrap;html=1;" parent="1" vertex="1">
          <mxGeometry x="103.63" y="1050" width="112.75" height="35" as="geometry" />
        </mxCell>
        <mxCell id="0RovRk77VPgDUOQnuBlu-178" value="" style="endArrow=classic;html=1;rounded=0;exitX=0.5;exitY=1;exitDx=0;exitDy=0;" parent="1" edge="1">
          <mxGeometry width="50" height="50" relative="1" as="geometry">
            <mxPoint x="159.38" y="1085" as="sourcePoint" />
            <mxPoint x="159.38" y="1125" as="targetPoint" />
          </mxGeometry>
        </mxCell>
        <mxCell id="0RovRk77VPgDUOQnuBlu-179" value="channels×2" style="text;html=1;align=center;verticalAlign=middle;resizable=0;points=[];autosize=1;strokeColor=none;fillColor=none;" parent="1" vertex="1">
          <mxGeometry x="138.25" y="981" width="90" height="30" as="geometry" />
        </mxCell>
        <mxCell id="0RovRk77VPgDUOQnuBlu-180" value="channels÷2" style="text;html=1;align=center;verticalAlign=middle;resizable=0;points=[];autosize=1;strokeColor=none;fillColor=none;" parent="1" vertex="1">
          <mxGeometry x="143.25" y="1041" width="80" height="30" as="geometry" />
        </mxCell>
        <mxCell id="0RovRk77VPgDUOQnuBlu-181" value="stride=2" style="text;html=1;align=center;verticalAlign=middle;resizable=0;points=[];autosize=1;strokeColor=none;fillColor=none;" parent="1" vertex="1">
          <mxGeometry x="314.5" y="690" width="70" height="30" as="geometry" />
        </mxCell>
        <mxCell id="0RovRk77VPgDUOQnuBlu-182" value="stride=1" style="text;html=1;align=center;verticalAlign=middle;resizable=0;points=[];autosize=1;strokeColor=none;fillColor=none;" parent="1" vertex="1">
          <mxGeometry x="314.5" y="750" width="70" height="30" as="geometry" />
        </mxCell>
        <mxCell id="0RovRk77VPgDUOQnuBlu-183" value="" style="rounded=1;whiteSpace=wrap;html=1;align=left;fillColor=#f8cecc;strokeColor=#b85450;" parent="1" vertex="1">
          <mxGeometry x="261" y="911" width="440" height="140" as="geometry" />
        </mxCell>
        <mxCell id="0RovRk77VPgDUOQnuBlu-184" value="decoder_block" style="text;html=1;align=center;verticalAlign=middle;resizable=0;points=[];autosize=1;strokeColor=none;fillColor=none;fontStyle=1" parent="1" vertex="1">
          <mxGeometry x="431" y="917" width="100" height="30" as="geometry" />
        </mxCell>
        <mxCell id="0RovRk77VPgDUOQnuBlu-185" value="input" style="text;html=1;align=center;verticalAlign=middle;resizable=0;points=[];autosize=1;strokeColor=none;fillColor=none;" parent="1" vertex="1">
          <mxGeometry x="270.75" y="941" width="50" height="30" as="geometry" />
        </mxCell>
        <mxCell id="0RovRk77VPgDUOQnuBlu-186" value="skip" style="text;html=1;align=center;verticalAlign=middle;resizable=0;points=[];autosize=1;strokeColor=none;fillColor=none;" parent="1" vertex="1">
          <mxGeometry x="275.75" y="1006" width="40" height="30" as="geometry" />
        </mxCell>
        <mxCell id="0RovRk77VPgDUOQnuBlu-187" value="" style="strokeWidth=1;html=1;shape=mxgraph.flowchart.annotation_2;align=left;labelPosition=right;pointerEvents=1;direction=west;" parent="1" vertex="1">
          <mxGeometry x="313.75" y="956" width="32.5" height="66" as="geometry" />
        </mxCell>
        <mxCell id="0RovRk77VPgDUOQnuBlu-188" value="Conv&lt;div&gt;3×3&lt;/div&gt;" style="rounded=1;whiteSpace=wrap;html=1;" parent="1" vertex="1">
          <mxGeometry x="346.75" y="971" width="69.5" height="35" as="geometry" />
        </mxCell>
        <mxCell id="0RovRk77VPgDUOQnuBlu-189" value="ResAttentionBlock" style="rounded=1;whiteSpace=wrap;html=1;" parent="1" vertex="1">
          <mxGeometry x="571.25" y="971" width="112.75" height="35" as="geometry" />
        </mxCell>
        <mxCell id="0RovRk77VPgDUOQnuBlu-190" value="stride=1" style="text;html=1;align=center;verticalAlign=middle;resizable=0;points=[];autosize=1;strokeColor=none;fillColor=none;" parent="1" vertex="1">
          <mxGeometry x="623.25" y="950" width="70" height="30" as="geometry" />
        </mxCell>
        <mxCell id="0RovRk77VPgDUOQnuBlu-191" value="" style="endArrow=none;html=1;rounded=0;exitX=1;exitY=0.5;exitDx=0;exitDy=0;entryX=0;entryY=0.5;entryDx=0;entryDy=0;" parent="1" source="0RovRk77VPgDUOQnuBlu-188" target="0RovRk77VPgDUOQnuBlu-189" edge="1">
          <mxGeometry width="50" height="50" relative="1" as="geometry">
            <mxPoint x="421" y="961" as="sourcePoint" />
            <mxPoint x="471" y="911" as="targetPoint" />
          </mxGeometry>
        </mxCell>
        <mxCell id="0RovRk77VPgDUOQnuBlu-192" value="BatchNorm" style="text;html=1;align=center;verticalAlign=middle;resizable=0;points=[];autosize=1;strokeColor=none;fillColor=none;" parent="1" vertex="1">
          <mxGeometry x="448" y="966" width="80" height="30" as="geometry" />
        </mxCell>
        <mxCell id="0RovRk77VPgDUOQnuBlu-193" value="ReLU" style="text;html=1;align=center;verticalAlign=middle;resizable=0;points=[];autosize=1;strokeColor=none;fillColor=none;" parent="1" vertex="1">
          <mxGeometry x="463" y="981" width="50" height="30" as="geometry" />
        </mxCell>
        <mxCell id="GKgfZvtBd4-jClSf1iv5-2" value="Res_Attention_Unet" style="text;strokeColor=none;fillColor=none;html=1;fontSize=24;fontStyle=1;verticalAlign=middle;align=center;" parent="1" vertex="1">
          <mxGeometry x="295.63" y="47" width="250" height="40" as="geometry" />
        </mxCell>
        <mxCell id="xpnT_DKMhjoTfEFhglnR-1" value="&lt;font style=&quot;font-size: 10px;&quot;&gt;&lt;b&gt;224&lt;sup&gt;2&lt;/sup&gt;&lt;/b&gt;&lt;/font&gt;" style="text;html=1;align=center;verticalAlign=middle;resizable=0;points=[];autosize=1;strokeColor=none;fillColor=none;rotation=-90;" vertex="1" parent="1">
          <mxGeometry x="113" y="190" width="40" height="30" as="geometry" />
        </mxCell>
        <mxCell id="xpnT_DKMhjoTfEFhglnR-2" value="&lt;font style=&quot;font-size: 10px;&quot;&gt;&lt;b&gt;224&lt;sup&gt;2&lt;/sup&gt;&lt;/b&gt;&lt;/font&gt;" style="text;html=1;align=center;verticalAlign=middle;resizable=0;points=[];autosize=1;strokeColor=none;fillColor=none;rotation=-90;" vertex="1" parent="1">
          <mxGeometry x="110.5" y="332" width="40" height="30" as="geometry" />
        </mxCell>
        <mxCell id="xpnT_DKMhjoTfEFhglnR-4" value="" style="rounded=1;whiteSpace=wrap;html=1;fillColor=#e1d5e7;strokeColor=#9673a6;" vertex="1" parent="1">
          <mxGeometry x="180" y="262" width="8" height="100" as="geometry" />
        </mxCell>
        <mxCell id="xpnT_DKMhjoTfEFhglnR-5" value="&lt;font style=&quot;font-size: 10px;&quot;&gt;&lt;b&gt;224&lt;sup&gt;2&lt;/sup&gt;&lt;/b&gt;&lt;/font&gt;" style="text;html=1;align=center;verticalAlign=middle;resizable=0;points=[];autosize=1;strokeColor=none;fillColor=none;rotation=-90;" vertex="1" parent="1">
          <mxGeometry x="153" y="332.25" width="40" height="30" as="geometry" />
        </mxCell>
        <mxCell id="xpnT_DKMhjoTfEFhglnR-7" value="&lt;span style=&quot;font-size: 10px;&quot;&gt;&lt;b&gt;112&lt;sup&gt;2&lt;/sup&gt;&lt;/b&gt;&lt;/span&gt;" style="text;html=1;align=center;verticalAlign=middle;resizable=0;points=[];autosize=1;strokeColor=none;fillColor=none;rotation=-90;" vertex="1" parent="1">
          <mxGeometry x="149.25" y="424" width="40" height="30" as="geometry" />
        </mxCell>
        <mxCell id="xpnT_DKMhjoTfEFhglnR-8" value="&lt;span style=&quot;font-size: 10px;&quot;&gt;&lt;b&gt;112&lt;sup&gt;2&lt;/sup&gt;&lt;/b&gt;&lt;/span&gt;" style="text;html=1;align=center;verticalAlign=middle;resizable=0;points=[];autosize=1;strokeColor=none;fillColor=none;rotation=-90;" vertex="1" parent="1">
          <mxGeometry x="196.88" y="427" width="40" height="30" as="geometry" />
        </mxCell>
        <mxCell id="xpnT_DKMhjoTfEFhglnR-9" value="&lt;font style=&quot;font-size: 10px;&quot;&gt;&lt;b&gt;128&lt;/b&gt;&lt;/font&gt;" style="text;html=1;align=center;verticalAlign=middle;resizable=0;points=[];autosize=1;strokeColor=none;fillColor=none;rotation=0;" vertex="1" parent="1">
          <mxGeometry x="210.63" y="384" width="40" height="30" as="geometry" />
        </mxCell>
        <mxCell id="xpnT_DKMhjoTfEFhglnR-10" value="" style="rounded=1;whiteSpace=wrap;html=1;fillColor=#e1d5e7;strokeColor=#9673a6;" vertex="1" parent="1">
          <mxGeometry x="224.13" y="404" width="16" height="50" as="geometry" />
        </mxCell>
        <mxCell id="xpnT_DKMhjoTfEFhglnR-11" value="&lt;span style=&quot;font-size: 10px;&quot;&gt;&lt;b&gt;56&lt;sup&gt;2&lt;/sup&gt;&lt;/b&gt;&lt;/span&gt;" style="text;html=1;align=center;verticalAlign=middle;resizable=0;points=[];autosize=1;strokeColor=none;fillColor=none;rotation=-90;" vertex="1" parent="1">
          <mxGeometry x="251.63" y="505.5" width="40" height="30" as="geometry" />
        </mxCell>
        <mxCell id="xpnT_DKMhjoTfEFhglnR-12" value="" style="rounded=1;whiteSpace=wrap;html=1;fillColor=#e1d5e7;strokeColor=#9673a6;" vertex="1" parent="1">
          <mxGeometry x="278.88" y="496.5" width="32" height="25" as="geometry" />
        </mxCell>
        <mxCell id="xpnT_DKMhjoTfEFhglnR-13" value="&lt;font style=&quot;font-size: 10px;&quot;&gt;&lt;b&gt;256&lt;/b&gt;&lt;/font&gt;" style="text;html=1;align=center;verticalAlign=middle;resizable=0;points=[];autosize=1;strokeColor=none;fillColor=none;rotation=0;" vertex="1" parent="1">
          <mxGeometry x="274.76" y="476.25" width="40" height="30" as="geometry" />
        </mxCell>
        <mxCell id="xpnT_DKMhjoTfEFhglnR-14" value="&lt;font style=&quot;font-size: 10px;&quot;&gt;&lt;b&gt;512&lt;/b&gt;&lt;/font&gt;" style="text;html=1;align=center;verticalAlign=middle;resizable=0;points=[];autosize=1;strokeColor=none;fillColor=none;rotation=0;" vertex="1" parent="1">
          <mxGeometry x="369.0000000000001" y="541.5" width="40" height="30" as="geometry" />
        </mxCell>
        <mxCell id="xpnT_DKMhjoTfEFhglnR-15" value="" style="rounded=1;whiteSpace=wrap;html=1;fillColor=#e1d5e7;strokeColor=#9673a6;" vertex="1" parent="1">
          <mxGeometry x="358.0000000000001" y="561.5" width="64" height="12.5" as="geometry" />
        </mxCell>
        <mxCell id="xpnT_DKMhjoTfEFhglnR-16" value="&lt;span style=&quot;font-size: 10px;&quot;&gt;&lt;b&gt;28&lt;sup&gt;2&lt;/sup&gt;&lt;/b&gt;&lt;/span&gt;" style="text;html=1;align=center;verticalAlign=middle;resizable=0;points=[];autosize=1;strokeColor=none;fillColor=none;rotation=-90;" vertex="1" parent="1">
          <mxGeometry x="332.63" y="562.5" width="40" height="30" as="geometry" />
        </mxCell>
        <mxCell id="xpnT_DKMhjoTfEFhglnR-17" value="&lt;span style=&quot;font-size: 10px;&quot;&gt;&lt;b&gt;28&lt;sup&gt;2&lt;/sup&gt;&lt;/b&gt;&lt;/span&gt;" style="text;html=1;align=center;verticalAlign=middle;resizable=0;points=[];autosize=1;strokeColor=none;fillColor=none;rotation=-90;" vertex="1" parent="1">
          <mxGeometry x="428.63" y="562.5" width="40" height="30" as="geometry" />
        </mxCell>
        <mxCell id="xpnT_DKMhjoTfEFhglnR-18" value="&lt;font style=&quot;font-size: 10px;&quot;&gt;&lt;b&gt;512&lt;/b&gt;&lt;/font&gt;" style="text;html=1;align=center;verticalAlign=middle;resizable=0;points=[];autosize=1;strokeColor=none;fillColor=none;rotation=0;" vertex="1" parent="1">
          <mxGeometry x="465.0000000000001" y="541.5" width="40" height="30" as="geometry" />
        </mxCell>
        <mxCell id="xpnT_DKMhjoTfEFhglnR-19" value="" style="rounded=1;whiteSpace=wrap;html=1;fillColor=#e1d5e7;strokeColor=#9673a6;" vertex="1" parent="1">
          <mxGeometry x="454.0000000000001" y="561.5" width="64" height="12.5" as="geometry" />
        </mxCell>
        <mxCell id="xpnT_DKMhjoTfEFhglnR-20" value="&lt;span style=&quot;font-size: 10px;&quot;&gt;&lt;b&gt;56&lt;sup&gt;2&lt;/sup&gt;&lt;/b&gt;&lt;/span&gt;" style="text;html=1;align=center;verticalAlign=middle;resizable=0;points=[];autosize=1;strokeColor=none;fillColor=none;rotation=-90;" vertex="1" parent="1">
          <mxGeometry x="485.06999999999994" y="505" width="40" height="30" as="geometry" />
        </mxCell>
        <mxCell id="xpnT_DKMhjoTfEFhglnR-21" value="" style="rounded=1;whiteSpace=wrap;html=1;fillColor=#e1d5e7;strokeColor=#9673a6;" vertex="1" parent="1">
          <mxGeometry x="534.2" y="496.5" width="32" height="25" as="geometry" />
        </mxCell>
        <mxCell id="xpnT_DKMhjoTfEFhglnR-22" value="&lt;span style=&quot;font-size: 10px;&quot;&gt;&lt;b&gt;56&lt;sup&gt;2&lt;/sup&gt;&lt;/b&gt;&lt;/span&gt;" style="text;html=1;align=center;verticalAlign=middle;resizable=0;points=[];autosize=1;strokeColor=none;fillColor=none;rotation=-90;" vertex="1" parent="1">
          <mxGeometry x="549.63" y="504.5" width="40" height="30" as="geometry" />
        </mxCell>
        <mxCell id="xpnT_DKMhjoTfEFhglnR-23" value="" style="rounded=1;whiteSpace=wrap;html=1;fillColor=#e1d5e7;strokeColor=#9673a6;" vertex="1" parent="1">
          <mxGeometry x="542.25" y="405.25" width="16" height="50" as="geometry" />
        </mxCell>
        <mxCell id="xpnT_DKMhjoTfEFhglnR-24" value="&lt;font style=&quot;font-size: 10px;&quot;&gt;&lt;b&gt;256&lt;/b&gt;&lt;/font&gt;" style="text;html=1;align=center;verticalAlign=middle;resizable=0;points=[];autosize=1;strokeColor=none;fillColor=none;rotation=0;" vertex="1" parent="1">
          <mxGeometry x="522.2000000000002" y="385" width="40" height="30" as="geometry" />
        </mxCell>
        <mxCell id="xpnT_DKMhjoTfEFhglnR-25" value="&lt;span style=&quot;font-size: 10px;&quot;&gt;&lt;b&gt;112&lt;sup&gt;2&lt;/sup&gt;&lt;/b&gt;&lt;/span&gt;" style="text;html=1;align=center;verticalAlign=middle;resizable=0;points=[];autosize=1;strokeColor=none;fillColor=none;rotation=-90;" vertex="1" parent="1">
          <mxGeometry x="541" y="435.5" width="40" height="30" as="geometry" />
        </mxCell>
        <mxCell id="xpnT_DKMhjoTfEFhglnR-26" value="" style="rounded=1;whiteSpace=wrap;html=1;fillColor=#e1d5e7;strokeColor=#9673a6;" vertex="1" parent="1">
          <mxGeometry x="590.63" y="405.25" width="16" height="50" as="geometry" />
        </mxCell>
        <mxCell id="xpnT_DKMhjoTfEFhglnR-27" value="&lt;span style=&quot;font-size: 10px;&quot;&gt;&lt;b&gt;112&lt;sup&gt;2&lt;/sup&gt;&lt;/b&gt;&lt;/span&gt;" style="text;html=1;align=center;verticalAlign=middle;resizable=0;points=[];autosize=1;strokeColor=none;fillColor=none;rotation=-90;" vertex="1" parent="1">
          <mxGeometry x="590.63" y="435.5" width="40" height="30" as="geometry" />
        </mxCell>
        <mxCell id="xpnT_DKMhjoTfEFhglnR-28" value="&lt;font style=&quot;font-size: 10px;&quot;&gt;&lt;b&gt;128&lt;/b&gt;&lt;/font&gt;" style="text;html=1;align=center;verticalAlign=middle;resizable=0;points=[];autosize=1;strokeColor=none;fillColor=none;rotation=0;" vertex="1" parent="1">
          <mxGeometry x="577.63" y="385" width="40" height="30" as="geometry" />
        </mxCell>
        <mxCell id="xpnT_DKMhjoTfEFhglnR-30" value="" style="rounded=1;whiteSpace=wrap;html=1;fillColor=#e1d5e7;strokeColor=#9673a6;" vertex="1" parent="1">
          <mxGeometry x="594.63" y="264.25" width="8" height="100" as="geometry" />
        </mxCell>
        <mxCell id="xpnT_DKMhjoTfEFhglnR-31" value="&lt;font style=&quot;font-size: 10px;&quot;&gt;&lt;b&gt;128&lt;/b&gt;&lt;/font&gt;" style="text;html=1;align=center;verticalAlign=middle;resizable=0;points=[];autosize=1;strokeColor=none;fillColor=none;rotation=0;" vertex="1" parent="1">
          <mxGeometry x="573.88" y="244" width="40" height="30" as="geometry" />
        </mxCell>
        <mxCell id="xpnT_DKMhjoTfEFhglnR-32" value="&lt;font style=&quot;font-size: 10px;&quot;&gt;&lt;b&gt;224&lt;sup&gt;2&lt;/sup&gt;&lt;/b&gt;&lt;/font&gt;" style="text;html=1;align=center;verticalAlign=middle;resizable=0;points=[];autosize=1;strokeColor=none;fillColor=none;rotation=-90;" vertex="1" parent="1">
          <mxGeometry x="587.63" y="332.25" width="40" height="30" as="geometry" />
        </mxCell>
        <mxCell id="xpnT_DKMhjoTfEFhglnR-33" value="" style="rounded=1;whiteSpace=wrap;html=1;fillColor=#e1d5e7;strokeColor=#9673a6;" vertex="1" parent="1">
          <mxGeometry x="636.5" y="264.25" width="8" height="100" as="geometry" />
        </mxCell>
        <mxCell id="xpnT_DKMhjoTfEFhglnR-34" value="&lt;font style=&quot;font-size: 10px;&quot;&gt;&lt;b&gt;64&lt;/b&gt;&lt;/font&gt;" style="text;html=1;align=center;verticalAlign=middle;resizable=0;points=[];autosize=1;strokeColor=none;fillColor=none;rotation=0;" vertex="1" parent="1">
          <mxGeometry x="624.5" y="244" width="30" height="30" as="geometry" />
        </mxCell>
        <mxCell id="xpnT_DKMhjoTfEFhglnR-35" value="&lt;font style=&quot;font-size: 10px;&quot;&gt;&lt;b&gt;224&lt;sup&gt;2&lt;/sup&gt;&lt;/b&gt;&lt;/font&gt;" style="text;html=1;align=center;verticalAlign=middle;resizable=0;points=[];autosize=1;strokeColor=none;fillColor=none;rotation=-90;" vertex="1" parent="1">
          <mxGeometry x="628.63" y="332" width="40" height="30" as="geometry" />
        </mxCell>
        <mxCell id="xpnT_DKMhjoTfEFhglnR-36" value="" style="rounded=1;whiteSpace=wrap;html=1;fillColor=#e1d5e7;strokeColor=#9673a6;" vertex="1" parent="1">
          <mxGeometry x="638.5" y="123" width="4" height="100" as="geometry" />
        </mxCell>
        <mxCell id="xpnT_DKMhjoTfEFhglnR-37" value="" style="shape=singleArrow;whiteSpace=wrap;html=1;arrowWidth=0.4;arrowSize=0.4;fillColor=#d5e8d4;strokeColor=#82b366;rotation=-90;" vertex="1" parent="1">
          <mxGeometry x="626.25" y="229" width="28.5" height="20" as="geometry" />
        </mxCell>
        <mxCell id="xpnT_DKMhjoTfEFhglnR-39" value="" style="rounded=1;whiteSpace=wrap;html=1;fillColor=#e1d5e7;strokeColor=#9673a6;" vertex="1" parent="1">
          <mxGeometry x="677.5" y="123" width="4" height="100" as="geometry" />
        </mxCell>
        <mxCell id="xpnT_DKMhjoTfEFhglnR-40" value="&lt;font style=&quot;font-size: 10px;&quot;&gt;&lt;b&gt;224&lt;sup&gt;2&lt;/sup&gt;&lt;/b&gt;&lt;/font&gt;" style="text;html=1;align=center;verticalAlign=middle;resizable=0;points=[];autosize=1;strokeColor=none;fillColor=none;rotation=-90;" vertex="1" parent="1">
          <mxGeometry x="627.25" y="192" width="40" height="30" as="geometry" />
        </mxCell>
        <mxCell id="xpnT_DKMhjoTfEFhglnR-41" value="&lt;font style=&quot;font-size: 10px;&quot;&gt;&lt;b&gt;224&lt;sup&gt;2&lt;/sup&gt;&lt;/b&gt;&lt;/font&gt;" style="text;html=1;align=center;verticalAlign=middle;resizable=0;points=[];autosize=1;strokeColor=none;fillColor=none;rotation=-90;" vertex="1" parent="1">
          <mxGeometry x="666" y="192" width="40" height="30" as="geometry" />
        </mxCell>
      </root>
    </mxGraphModel>
  </diagram>
</mxfile>
